<svg xmlns="http://www.w3.org/2000/svg" xmlns:xlink="http://www.w3.org/1999/xlink" version="1.1" width="400,666.6666666666667" height="undefined"><rect id="backgroundrect" width="100%" height="100%" x="0" y="0" fill="none" stroke="none"/><g class="currentLayer" style=""><title>Layer 1</title><g id="svgg" class="selected" stroke="#ebeb1a" stroke-opacity="1"><path id="path0" d="M206.896 13.909 C 206.623 14.487,206.400 15.273,206.400 15.656 C 206.400 16.039,206.220 16.464,206.000 16.600 C 205.780 16.736,205.600 17.199,205.600 17.629 C 205.600 18.059,205.431 18.723,205.225 19.105 C 205.019 19.487,204.377 21.150,203.800 22.800 C 203.223 24.450,202.581 26.113,202.375 26.495 C 202.169 26.877,202.000 27.464,202.000 27.800 C 202.000 28.136,201.826 28.723,201.613 29.105 C 201.400 29.487,200.955 30.610,200.626 31.600 C 199.543 34.850,198.952 36.381,198.674 36.659 C 198.523 36.810,198.400 37.317,198.400 37.787 C 198.400 38.256,198.257 38.811,198.082 39.020 C 197.907 39.229,197.532 40.120,197.249 41.000 C 196.309 43.922,194.756 48.190,194.375 48.895 C 194.169 49.277,194.000 49.864,194.000 50.200 C 194.000 50.536,193.826 51.123,193.613 51.505 C 193.400 51.887,192.955 53.010,192.626 54.000 C 191.543 57.250,190.952 58.781,190.674 59.059 C 190.523 59.210,190.400 59.666,190.400 60.072 C 190.400 60.478,190.229 61.123,190.019 61.505 C 189.554 62.353,187.183 69.052,186.906 70.300 C 186.797 70.795,186.548 71.200,186.353 71.200 C 186.159 71.200,186.000 71.516,186.000 71.902 C 186.000 72.288,185.534 73.863,184.965 75.402 C 184.395 76.941,183.750 78.740,183.532 79.400 C 183.146 80.563,182.950 81.087,182.109 83.200 C 181.890 83.750,181.496 84.920,181.232 85.800 C 180.684 87.635,178.914 92.264,178.368 93.295 C 178.166 93.677,178.000 94.341,178.000 94.771 C 178.000 95.201,177.820 95.664,177.600 95.800 C 177.380 95.936,177.200 96.399,177.200 96.829 C 177.200 97.259,177.031 97.923,176.825 98.305 C 176.619 98.687,175.977 100.350,175.400 102.000 C 174.823 103.650,174.181 105.313,173.975 105.695 C 173.769 106.077,173.600 106.664,173.600 107.000 C 173.600 107.336,173.431 107.923,173.225 108.305 C 173.019 108.687,172.377 110.350,171.800 112.000 C 171.223 113.650,170.581 115.313,170.375 115.695 C 170.169 116.077,170.000 116.741,170.000 117.171 C 170.000 117.601,169.820 118.064,169.600 118.200 C 169.380 118.336,169.200 118.799,169.200 119.229 C 169.200 119.659,169.049 120.323,168.865 120.705 C 168.681 121.087,168.186 122.120,167.764 123.000 L 166.998 124.600 104.436 124.701 L 41.873 124.803 45.946 127.601 C 48.186 129.141,50.180 130.400,50.376 130.400 C 50.573 130.400,50.793 130.545,50.867 130.723 C 50.940 130.901,52.080 131.753,53.400 132.615 C 54.720 133.478,55.860 134.323,55.933 134.492 C 56.007 134.661,56.322 134.800,56.633 134.800 C 56.945 134.800,57.200 134.980,57.200 135.200 C 57.200 135.420,57.380 135.600,57.599 135.600 C 58.058 135.600,62.133 138.436,62.333 138.895 C 62.407 139.063,62.626 139.200,62.820 139.200 C 63.171 139.200,76.884 148.460,78.800 149.990 C 79.350 150.430,80.025 150.792,80.300 150.795 C 80.575 150.798,80.800 150.942,80.800 151.116 C 80.800 151.290,81.700 151.958,82.800 152.600 C 83.900 153.242,84.800 153.888,84.800 154.036 C 84.800 154.183,85.340 154.527,86.000 154.800 C 86.660 155.073,87.200 155.414,87.200 155.558 C 87.200 155.701,87.830 156.157,88.600 156.572 C 89.370 156.987,90.000 157.478,90.000 157.663 C 90.000 157.848,90.187 158.000,90.415 158.000 C 90.643 158.000,94.875 160.790,99.819 164.200 C 104.764 167.610,108.972 170.400,109.171 170.400 C 109.370 170.400,109.593 170.535,109.667 170.700 C 109.740 170.865,110.880 171.720,112.200 172.600 C 113.520 173.480,114.660 174.335,114.733 174.500 C 114.807 174.665,115.122 174.800,115.433 174.800 C 115.745 174.800,116.000 174.980,116.000 175.200 C 116.000 175.420,116.180 175.600,116.399 175.600 C 116.858 175.600,120.933 178.436,121.133 178.895 C 121.207 179.063,121.430 179.200,121.629 179.200 C 121.829 179.200,125.776 181.810,130.400 185.000 C 135.024 188.190,138.971 190.800,139.171 190.800 C 139.370 190.800,139.593 190.942,139.667 191.114 C 139.740 191.287,140.385 191.840,141.100 192.342 C 142.370 193.233,142.800 194.505,142.000 195.000 C 141.780 195.136,141.600 195.689,141.600 196.229 C 141.600 196.769,141.439 197.523,141.243 197.905 C 141.046 198.287,140.397 200.220,139.799 202.200 C 139.201 204.180,138.573 206.250,138.402 206.800 C 138.232 207.350,137.866 208.610,137.590 209.600 C 136.603 213.130,135.113 217.811,134.760 218.495 C 134.562 218.877,134.400 219.631,134.400 220.171 C 134.400 220.711,134.220 221.264,134.000 221.400 C 133.780 221.536,133.600 222.089,133.600 222.629 C 133.600 223.169,133.439 223.923,133.243 224.305 C 133.046 224.687,132.397 226.620,131.799 228.600 C 131.201 230.580,130.573 232.650,130.402 233.200 C 130.232 233.750,129.894 234.920,129.650 235.800 C 128.593 239.619,127.131 244.254,126.780 244.895 C 126.571 245.277,126.400 246.031,126.400 246.571 C 126.400 247.111,126.220 247.664,126.000 247.800 C 125.780 247.936,125.600 248.489,125.600 249.029 C 125.600 249.569,125.435 250.323,125.233 250.705 C 125.032 251.087,124.571 252.480,124.210 253.800 C 123.849 255.120,123.384 256.513,123.177 256.895 C 122.969 257.277,122.800 257.954,122.800 258.400 C 122.800 258.846,122.638 259.523,122.439 259.905 C 122.240 260.287,121.854 261.410,121.581 262.400 C 121.308 263.390,120.863 264.920,120.592 265.800 C 120.320 266.680,119.701 268.750,119.215 270.400 C 118.730 272.050,118.168 273.713,117.966 274.095 C 117.765 274.477,117.600 275.154,117.600 275.600 C 117.600 276.046,117.435 276.723,117.233 277.105 C 117.032 277.487,116.571 278.880,116.210 280.200 C 115.849 281.520,115.384 282.913,115.177 283.295 C 114.969 283.677,114.800 284.431,114.800 284.971 C 114.800 285.511,114.620 286.064,114.400 286.200 C 114.180 286.336,114.000 286.889,114.000 287.429 C 114.000 287.969,113.836 288.723,113.636 289.105 C 113.435 289.487,112.790 291.420,112.202 293.400 C 111.614 295.380,110.946 297.630,110.717 298.400 C 110.489 299.170,110.144 300.113,109.951 300.495 C 109.758 300.877,109.600 301.543,109.600 301.976 C 109.600 302.408,109.436 303.176,109.236 303.681 C 108.578 305.345,107.508 309.242,107.667 309.400 C 107.837 309.571,127.106 296.328,132.258 292.500 C 133.220 291.785,134.185 291.200,134.403 291.200 C 134.622 291.200,134.800 291.059,134.800 290.886 C 134.800 290.714,135.385 290.232,136.100 289.816 C 136.815 289.401,137.490 288.948,137.600 288.812 C 138.037 288.269,145.569 283.200,145.939 283.200 C 146.156 283.200,146.393 283.040,146.467 282.845 C 146.540 282.650,150.470 279.823,155.200 276.561 C 159.930 273.300,164.149 270.309,164.575 269.916 C 165.002 269.522,165.469 269.200,165.613 269.200 C 165.758 269.200,166.381 268.766,166.998 268.235 C 167.616 267.704,168.589 267.030,169.161 266.736 C 169.732 266.442,170.290 266.089,170.400 265.951 C 170.510 265.814,175.370 262.408,181.200 258.384 C 187.030 254.359,191.890 250.962,192.000 250.833 C 192.110 250.705,192.488 250.420,192.840 250.200 C 194.712 249.030,197.039 247.418,197.454 247.003 C 197.714 246.743,198.888 245.922,200.063 245.178 C 201.239 244.435,202.290 243.718,202.400 243.587 C 202.510 243.455,203.485 242.745,204.566 242.009 L 206.531 240.671 208.266 241.591 C 209.220 242.097,210.000 242.666,210.000 242.856 C 210.000 243.045,210.225 243.202,210.500 243.204 C 210.915 243.207,212.284 244.152,215.000 246.307 C 215.220 246.481,216.210 247.174,217.200 247.845 C 223.901 252.390,233.822 259.404,233.933 259.675 C 234.007 259.854,234.231 260.000,234.432 260.000 C 234.867 260.000,238.941 262.855,239.133 263.295 C 239.207 263.463,239.442 263.600,239.657 263.600 C 239.992 263.600,242.742 265.499,244.283 266.794 C 244.549 267.017,244.954 267.200,245.183 267.200 C 245.412 267.200,245.600 267.368,245.600 267.573 C 245.600 267.778,245.915 268.047,246.300 268.171 C 246.685 268.295,247.630 268.937,248.400 269.597 C 249.170 270.258,250.010 270.799,250.267 270.799 C 250.523 270.800,250.793 270.953,250.867 271.139 C 250.940 271.326,251.658 271.911,252.462 272.439 C 255.270 274.285,269.402 284.151,269.600 284.405 C 269.710 284.545,270.385 285.001,271.100 285.416 C 271.815 285.832,272.400 286.314,272.400 286.486 C 272.400 286.659,272.625 286.800,272.900 286.800 C 273.175 286.801,273.923 287.251,274.562 287.800 C 275.201 288.350,275.831 288.800,275.962 288.801 C 276.093 288.801,276.830 289.341,277.600 290.000 C 278.370 290.659,279.225 291.199,279.500 291.199 C 279.775 291.200,280.000 291.341,280.000 291.514 C 280.000 291.686,280.585 292.168,281.300 292.584 C 282.015 292.999,282.690 293.450,282.800 293.585 C 282.910 293.720,287.140 296.684,292.200 300.171 C 297.260 303.659,301.460 306.667,301.533 306.856 C 301.607 307.045,301.853 307.200,302.080 307.200 C 302.307 307.200,303.372 307.845,304.446 308.634 C 305.521 309.423,306.400 309.883,306.400 309.658 C 306.400 309.432,306.220 309.136,306.000 309.000 C 305.780 308.864,305.600 308.311,305.600 307.771 C 305.600 307.231,305.436 306.477,305.236 306.095 C 305.036 305.713,304.386 303.780,303.791 301.800 C 303.196 299.820,302.550 297.787,302.355 297.281 C 302.160 296.776,302.000 296.008,302.000 295.576 C 302.000 295.143,301.836 294.477,301.636 294.095 C 301.436 293.713,300.787 291.780,300.194 289.800 C 299.600 287.820,298.954 285.887,298.757 285.505 C 298.561 285.123,298.400 284.369,298.400 283.829 C 298.400 283.289,298.220 282.736,298.000 282.600 C 297.780 282.464,297.600 281.911,297.600 281.371 C 297.600 280.831,297.438 280.077,297.240 279.695 C 296.607 278.471,294.800 272.533,294.800 271.675 C 294.800 271.220,294.620 270.736,294.400 270.600 C 294.180 270.464,294.000 269.911,294.000 269.371 C 294.000 268.831,293.838 268.077,293.640 267.695 C 293.279 266.995,291.739 262.143,290.818 258.800 C 290.545 257.810,290.160 256.687,289.961 256.305 C 289.762 255.923,289.600 255.246,289.600 254.800 C 289.600 254.354,289.438 253.677,289.240 253.295 C 289.042 252.913,288.569 251.520,288.190 250.200 C 287.811 248.880,287.343 247.487,287.150 247.105 C 286.958 246.723,286.800 245.969,286.800 245.429 C 286.800 244.889,286.620 244.336,286.400 244.200 C 286.180 244.064,286.000 243.511,286.000 242.971 C 286.000 242.431,285.836 241.677,285.636 241.295 C 285.436 240.913,284.784 238.980,284.186 237.000 C 283.589 235.020,282.964 232.950,282.796 232.400 C 282.629 231.850,282.271 230.590,282.001 229.600 C 281.730 228.610,281.370 227.440,281.201 227.000 C 281.032 226.560,280.580 225.120,280.197 223.800 C 279.814 222.480,279.343 221.087,279.150 220.705 C 278.958 220.323,278.800 219.569,278.800 219.029 C 278.800 218.489,278.620 217.936,278.400 217.800 C 278.180 217.664,278.000 217.111,278.000 216.571 C 278.000 216.031,277.839 215.277,277.643 214.895 C 277.446 214.513,276.797 212.580,276.199 210.600 C 275.601 208.620,274.973 206.550,274.802 206.000 C 274.632 205.450,274.268 204.190,273.992 203.200 C 273.717 202.210,273.080 200.140,272.576 198.600 C 271.101 194.088,270.981 192.945,271.931 192.437 C 272.375 192.200,272.977 191.773,273.269 191.489 C 273.561 191.205,275.330 189.904,277.200 188.598 C 279.070 187.291,280.780 186.080,281.000 185.906 C 283.788 183.701,285.084 182.807,285.500 182.804 C 285.775 182.802,286.000 182.665,286.001 182.500 C 286.001 182.335,286.807 181.660,287.792 181.000 C 288.777 180.340,289.586 179.665,289.591 179.500 C 289.596 179.335,289.836 179.200,290.125 179.200 C 290.413 179.200,290.998 178.885,291.425 178.500 C 292.832 177.228,301.218 171.200,301.579 171.200 C 301.774 171.200,301.993 171.056,302.067 170.880 C 302.140 170.703,303.460 169.672,305.000 168.587 C 306.540 167.502,307.860 166.477,307.933 166.307 C 308.007 166.138,308.245 166.000,308.462 166.000 C 308.679 166.000,309.133 165.724,309.471 165.386 C 309.809 165.048,311.191 164.028,312.543 163.119 C 313.894 162.210,315.540 161.043,316.200 160.527 C 318.025 159.099,317.972 159.137,321.600 156.600 C 323.470 155.292,325.180 154.080,325.400 153.906 C 328.188 151.701,329.484 150.807,329.900 150.804 C 330.175 150.802,330.400 150.664,330.400 150.498 C 330.400 150.331,331.475 149.476,332.789 148.598 C 334.103 147.719,335.183 146.865,335.189 146.700 C 335.195 146.535,335.378 146.400,335.595 146.400 C 335.813 146.400,336.308 146.132,336.695 145.804 C 337.083 145.477,339.290 143.869,341.600 142.232 C 343.910 140.595,345.980 139.098,346.200 138.906 C 346.420 138.714,348.130 137.494,350.000 136.194 C 351.870 134.895,353.490 133.723,353.600 133.590 C 353.710 133.457,355.690 132.020,358.000 130.397 C 360.310 128.773,362.260 127.300,362.333 127.123 C 362.407 126.945,362.722 126.800,363.033 126.800 C 363.345 126.800,363.600 126.662,363.600 126.493 C 363.600 126.324,364.095 125.878,364.700 125.503 C 365.739 124.859,362.374 124.821,303.510 124.811 L 241.221 124.800 240.666 123.700 C 240.361 123.095,239.801 121.520,239.420 120.200 C 239.039 118.880,238.564 117.387,238.364 116.881 C 238.164 116.376,238.000 115.608,238.000 115.176 C 238.000 114.743,237.841 114.077,237.646 113.695 C 237.030 112.485,235.200 106.455,235.200 105.634 C 235.200 105.201,235.020 104.736,234.800 104.600 C 234.580 104.464,234.400 103.834,234.400 103.200 C 234.400 102.566,234.220 101.936,234.000 101.800 C 233.780 101.664,233.600 101.111,233.600 100.571 C 233.600 100.031,233.438 99.277,233.240 98.895 C 233.042 98.513,232.569 97.120,232.190 95.800 C 231.811 94.480,231.343 93.087,231.150 92.705 C 230.958 92.323,230.800 91.569,230.800 91.029 C 230.800 90.489,230.620 89.936,230.400 89.800 C 230.180 89.664,230.000 89.034,230.000 88.400 C 230.000 87.766,229.820 87.136,229.600 87.000 C 229.380 86.864,229.200 86.311,229.200 85.771 C 229.200 85.231,229.033 84.477,228.829 84.095 C 228.483 83.446,227.786 81.198,226.756 77.400 C 226.517 76.520,226.160 75.487,225.961 75.105 C 225.762 74.723,225.600 74.057,225.600 73.624 C 225.600 73.192,225.438 72.424,225.239 71.919 C 225.041 71.413,224.390 69.380,223.794 67.400 C 223.198 65.420,222.550 63.387,222.355 62.881 C 222.160 62.376,222.000 61.608,222.000 61.176 C 222.000 60.743,221.841 60.077,221.646 59.695 C 221.030 58.485,219.200 52.455,219.200 51.634 C 219.200 51.201,219.020 50.736,218.800 50.600 C 218.580 50.464,218.400 49.834,218.400 49.200 C 218.400 48.566,218.220 47.936,218.000 47.800 C 217.780 47.664,217.600 47.111,217.600 46.571 C 217.600 46.031,217.438 45.277,217.240 44.895 C 217.042 44.513,216.569 43.120,216.190 41.800 C 215.811 40.480,215.343 39.087,215.150 38.705 C 214.958 38.323,214.800 37.569,214.800 37.029 C 214.800 36.489,214.620 35.936,214.400 35.800 C 214.180 35.664,214.000 35.034,214.000 34.400 C 214.000 33.766,213.820 33.136,213.600 33.000 C 213.380 32.864,213.200 32.311,213.200 31.771 C 213.200 31.231,213.031 30.477,212.823 30.095 C 212.616 29.713,212.151 28.320,211.790 27.000 C 211.429 25.680,210.968 24.287,210.767 23.905 C 210.565 23.523,210.400 22.769,210.400 22.229 C 210.400 21.689,210.220 21.136,210.000 21.000 C 209.780 20.864,209.600 20.372,209.600 19.906 C 209.600 19.254,207.761 13.275,207.454 12.929 C 207.420 12.890,207.169 13.331,206.896 13.909 M206.676 68.100 C 206.903 68.595,207.404 70.080,207.791 71.400 C 208.178 72.720,208.632 74.250,208.801 74.800 C 208.969 75.350,209.329 76.610,209.600 77.600 C 209.871 78.590,210.232 79.850,210.402 80.400 C 210.573 80.950,211.202 83.020,211.801 85.000 C 212.400 86.980,213.050 89.013,213.245 89.519 C 213.440 90.024,213.600 90.792,213.600 91.224 C 213.600 91.657,213.764 92.323,213.964 92.705 C 214.165 93.087,214.804 95.020,215.385 97.000 C 215.966 98.980,216.612 101.013,216.820 101.519 C 217.029 102.024,217.200 102.869,217.200 103.395 C 217.200 103.922,217.380 104.464,217.600 104.600 C 217.820 104.736,218.000 105.366,218.000 106.000 C 218.000 106.634,218.180 107.264,218.400 107.400 C 218.620 107.536,218.800 108.166,218.800 108.800 C 218.800 109.434,218.966 110.055,219.169 110.181 C 219.372 110.306,219.657 110.992,219.802 111.705 C 220.157 113.451,220.821 115.647,221.249 116.495 C 221.442 116.877,221.600 117.631,221.600 118.171 C 221.600 118.711,221.780 119.264,222.000 119.400 C 222.220 119.536,222.400 120.089,222.400 120.629 C 222.400 121.169,222.558 121.923,222.750 122.305 C 223.066 122.932,223.807 125.302,224.904 129.200 C 225.121 129.970,225.456 130.913,225.649 131.295 C 225.842 131.677,226.000 132.431,226.000 132.971 C 226.000 133.511,226.180 134.064,226.400 134.200 C 226.620 134.336,226.806 134.842,226.813 135.324 C 226.826 136.225,227.973 139.811,228.533 140.700 C 228.781 141.095,237.672 141.200,270.800 141.200 C 297.278 141.200,312.841 141.342,312.991 141.585 C 313.293 142.074,312.256 143.112,309.762 144.819 C 308.683 145.558,307.591 146.351,307.336 146.581 C 306.792 147.071,298.217 153.213,297.255 153.800 C 296.895 154.020,296.510 154.305,296.400 154.433 C 296.290 154.561,294.670 155.727,292.800 157.025 C 290.930 158.322,289.051 159.702,288.625 160.092 C 288.198 160.481,287.716 160.800,287.553 160.800 C 287.390 160.800,287.019 161.031,286.729 161.313 C 286.438 161.596,284.670 162.892,282.800 164.194 C 280.930 165.496,279.310 166.673,279.200 166.811 C 278.982 167.083,269.931 173.552,268.860 174.200 C 268.497 174.420,268.110 174.696,268.000 174.813 C 267.890 174.930,266.810 175.737,265.600 176.606 C 264.390 177.475,263.340 178.324,263.267 178.493 C 263.193 178.662,262.954 178.800,262.734 178.800 C 262.514 178.800,261.566 179.430,260.626 180.200 C 259.686 180.970,258.726 181.600,258.492 181.600 C 258.258 181.600,258.007 181.736,257.933 181.902 C 257.772 182.267,252.864 185.912,252.264 186.112 C 251.803 186.266,252.641 190.674,253.264 191.380 C 253.449 191.589,253.600 192.176,253.600 192.685 C 253.600 193.194,253.758 193.923,253.951 194.305 C 254.144 194.687,254.489 195.630,254.717 196.400 C 254.946 197.170,255.614 199.420,256.202 201.400 C 256.790 203.380,257.435 205.313,257.636 205.695 C 257.836 206.077,258.000 206.831,258.000 207.371 C 258.000 207.911,258.180 208.464,258.400 208.600 C 258.620 208.736,258.800 209.289,258.800 209.829 C 258.800 210.369,258.969 211.123,259.177 211.505 C 259.384 211.887,259.849 213.280,260.210 214.600 C 260.571 215.920,261.032 217.313,261.233 217.695 C 261.435 218.077,261.600 218.754,261.600 219.200 C 261.600 219.646,261.765 220.323,261.966 220.705 C 262.168 221.087,262.730 222.750,263.215 224.400 C 263.701 226.050,264.320 228.120,264.592 229.000 C 264.863 229.880,265.311 231.410,265.589 232.400 C 265.866 233.390,266.232 234.650,266.402 235.200 C 266.573 235.750,267.201 237.820,267.799 239.800 C 268.397 241.780,269.046 243.713,269.243 244.095 C 269.439 244.477,269.600 245.231,269.600 245.771 C 269.600 246.311,269.780 246.864,270.000 247.000 C 270.220 247.136,270.400 247.689,270.400 248.229 C 270.400 248.769,270.564 249.523,270.764 249.905 C 270.964 250.287,271.616 252.220,272.214 254.200 C 272.811 256.180,273.436 258.250,273.604 258.800 C 273.771 259.350,274.130 260.610,274.402 261.600 C 274.673 262.590,275.144 264.079,275.448 264.908 C 276.142 266.805,276.153 268.000,275.477 268.000 C 275.014 268.000,266.909 262.636,266.400 261.992 C 266.290 261.853,265.615 261.399,264.900 260.984 C 264.185 260.568,263.600 260.086,263.600 259.914 C 263.600 259.741,263.375 259.600,263.100 259.600 C 262.825 259.599,262.077 259.149,261.438 258.600 C 260.799 258.050,260.158 257.600,260.013 257.600 C 259.869 257.600,259.402 257.282,258.975 256.893 C 258.549 256.504,252.890 252.519,246.400 248.037 C 239.910 243.556,234.540 239.734,234.467 239.544 C 234.393 239.355,234.123 239.198,233.867 239.196 C 233.610 239.194,232.653 238.609,231.739 237.896 C 229.268 235.967,228.133 235.147,225.795 233.600 C 222.630 231.506,210.630 223.121,210.400 222.842 C 210.290 222.709,209.750 222.347,209.200 222.039 C 208.650 221.730,207.825 221.234,207.366 220.936 C 206.628 220.457,206.401 220.506,205.405 221.362 C 204.785 221.894,203.811 222.570,203.239 222.864 C 202.668 223.158,202.110 223.514,202.000 223.654 C 201.890 223.795,198.470 226.207,194.400 229.016 C 190.330 231.824,186.940 234.274,186.867 234.461 C 186.793 234.647,186.523 234.800,186.267 234.801 C 186.010 234.801,185.170 235.341,184.400 236.000 C 183.630 236.659,182.893 237.199,182.762 237.199 C 182.631 237.200,182.001 237.650,181.362 238.200 C 180.723 238.749,180.046 239.199,179.858 239.200 C 179.563 239.200,178.743 239.791,176.517 241.606 C 176.251 241.823,175.861 242.000,175.650 242.000 C 175.439 242.000,175.207 242.137,175.133 242.305 C 174.941 242.745,170.867 245.600,170.432 245.600 C 170.231 245.600,170.007 245.750,169.933 245.933 C 169.819 246.218,157.263 255.063,152.860 257.960 C 152.057 258.489,151.310 259.031,151.200 259.166 C 151.090 259.301,149.920 260.128,148.600 261.005 C 147.280 261.882,146.110 262.695,146.000 262.812 C 145.423 263.422,141.541 266.000,141.199 266.000 C 140.980 266.000,140.800 266.141,140.800 266.314 C 140.800 266.691,138.657 268.000,138.038 268.000 C 137.509 268.000,137.464 266.386,137.958 265.119 C 138.155 264.613,138.541 263.390,138.815 262.400 C 139.759 258.993,141.282 254.199,141.640 253.505 C 141.838 253.123,142.000 252.369,142.000 251.829 C 142.000 251.289,142.180 250.736,142.400 250.600 C 142.620 250.464,142.800 249.911,142.800 249.371 C 142.800 248.831,142.958 248.077,143.150 247.695 C 143.343 247.313,143.811 245.920,144.190 244.600 C 144.569 243.280,145.042 241.887,145.240 241.505 C 145.438 241.123,145.600 240.446,145.600 240.000 C 145.600 239.554,145.762 238.877,145.961 238.495 C 146.160 238.113,146.545 236.990,146.818 236.000 C 147.739 232.657,149.279 227.805,149.640 227.105 C 149.838 226.723,150.000 225.969,150.000 225.429 C 150.000 224.889,150.180 224.336,150.400 224.200 C 150.620 224.064,150.800 223.511,150.800 222.971 C 150.800 222.431,150.958 221.677,151.150 221.295 C 151.343 220.913,151.811 219.520,152.190 218.200 C 152.569 216.880,153.042 215.487,153.240 215.105 C 153.438 214.723,153.600 214.046,153.600 213.600 C 153.600 213.154,153.762 212.477,153.961 212.095 C 154.160 211.713,154.545 210.590,154.818 209.600 C 155.739 206.257,157.279 201.405,157.640 200.705 C 157.838 200.323,158.000 199.657,158.000 199.224 C 158.000 198.792,158.160 198.024,158.355 197.519 C 158.550 197.013,159.196 194.980,159.791 193.000 C 160.386 191.020,161.036 189.087,161.236 188.705 C 162.183 186.897,161.726 186.295,156.907 183.000 C 154.333 181.240,152.041 179.728,151.813 179.640 C 151.586 179.552,151.310 179.356,151.200 179.204 C 151.090 179.052,149.650 178.049,148.000 176.975 C 146.350 175.901,144.940 174.882,144.867 174.711 C 144.793 174.540,144.493 174.400,144.200 174.400 C 143.907 174.400,143.607 174.263,143.533 174.095 C 143.460 173.928,142.277 173.073,140.903 172.195 C 139.530 171.318,138.405 170.465,138.403 170.300 C 138.402 170.135,138.223 170.000,138.007 170.000 C 137.791 170.000,133.336 167.060,128.107 163.466 C 122.878 159.872,118.015 156.594,117.300 156.180 C 116.585 155.766,116.000 155.286,116.000 155.114 C 116.000 154.941,115.764 154.800,115.475 154.800 C 115.187 154.800,114.596 154.485,114.162 154.100 C 113.728 153.715,110.319 151.345,106.586 148.833 C 98.276 143.240,96.649 141.991,97.092 141.548 C 97.281 141.359,115.767 141.158,138.172 141.102 L 178.907 141.000 180.078 137.800 C 180.722 136.040,181.417 134.287,181.624 133.905 C 181.831 133.523,182.000 132.859,182.000 132.429 C 182.000 131.999,182.180 131.536,182.400 131.400 C 182.620 131.264,182.800 130.801,182.800 130.371 C 182.800 129.941,182.962 129.277,183.159 128.895 C 183.356 128.513,183.825 127.390,184.200 126.400 C 184.575 125.410,185.044 124.287,185.241 123.905 C 185.438 123.523,185.600 122.859,185.600 122.429 C 185.600 121.999,185.780 121.536,186.000 121.400 C 186.220 121.264,186.400 120.801,186.400 120.371 C 186.400 119.941,186.569 119.277,186.775 118.895 C 186.981 118.513,187.623 116.850,188.200 115.200 C 188.777 113.550,189.419 111.887,189.625 111.505 C 189.831 111.123,190.000 110.536,190.000 110.200 C 190.000 109.864,190.174 109.277,190.387 108.895 C 190.600 108.513,191.045 107.390,191.374 106.400 C 192.457 103.150,193.048 101.619,193.326 101.341 C 193.477 101.190,193.600 100.657,193.600 100.157 C 193.600 99.657,193.780 99.136,194.000 99.000 C 194.220 98.864,194.400 98.349,194.400 97.856 C 194.400 97.363,194.544 96.789,194.719 96.580 C 194.895 96.371,195.370 95.210,195.775 94.000 C 196.180 92.790,196.667 91.629,196.856 91.420 C 197.045 91.211,197.200 90.637,197.200 90.144 C 197.200 89.651,197.380 89.136,197.600 89.000 C 197.820 88.864,198.000 88.401,198.000 87.971 C 198.000 87.541,198.174 86.877,198.387 86.495 C 198.600 86.113,199.045 84.990,199.374 84.000 C 200.457 80.750,201.048 79.219,201.326 78.941 C 201.477 78.790,201.600 78.334,201.600 77.928 C 201.600 77.522,201.772 76.877,201.981 76.495 C 202.191 76.113,202.846 74.360,203.436 72.600 C 204.026 70.840,204.665 69.229,204.855 69.020 C 205.045 68.811,205.200 68.316,205.200 67.920 C 205.200 66.904,206.184 67.024,206.676 68.100 M195.600 305.180 C 195.600 305.337,196.050 305.706,196.600 306.000 C 197.150 306.294,197.600 306.685,197.600 306.868 C 197.600 307.050,197.794 307.200,198.032 307.200 C 198.411 307.200,208.681 314.157,209.200 314.766 C 209.310 314.894,210.300 315.616,211.400 316.370 C 213.403 317.742,225.624 326.800,226.000 327.192 C 226.110 327.306,227.100 328.114,228.200 328.986 C 229.300 329.859,230.290 330.670,230.400 330.789 C 230.510 330.907,231.320 331.534,232.200 332.181 C 233.080 332.828,233.890 333.461,234.000 333.586 C 234.110 333.712,235.730 335.068,237.600 336.599 C 239.470 338.129,241.270 339.663,241.600 340.005 C 241.930 340.348,242.723 341.030,243.362 341.521 C 248.214 345.246,262.264 358.803,269.600 366.838 C 271.690 369.127,273.676 371.270,274.014 371.600 C 274.352 371.930,275.342 373.100,276.214 374.200 C 277.086 375.300,277.900 376.290,278.021 376.400 C 278.143 376.510,279.192 377.770,280.353 379.200 C 283.067 382.544,283.189 382.699,284.604 384.600 C 285.260 385.480,285.902 386.290,286.032 386.400 C 286.636 386.910,293.600 397.187,293.600 397.568 C 293.600 397.806,293.780 398.000,294.000 398.000 C 294.220 398.000,294.400 398.197,294.400 398.438 C 294.400 398.679,294.805 399.442,295.300 400.133 C 295.795 400.823,296.397 401.751,296.637 402.194 C 297.471 403.731,298.762 405.956,299.700 407.474 C 301.616 410.575,307.221 422.385,308.778 426.600 C 309.265 427.920,309.830 429.313,310.032 429.695 C 310.234 430.077,310.400 430.664,310.400 431.000 C 310.400 431.336,310.575 431.923,310.790 432.305 C 311.445 433.474,313.200 439.008,313.200 439.906 C 313.200 440.372,313.380 440.864,313.600 441.000 C 313.820 441.136,314.000 441.856,314.000 442.600 C 314.000 443.344,314.180 444.064,314.400 444.200 C 314.620 444.336,314.800 445.078,314.800 445.850 C 314.800 446.621,314.972 447.573,315.181 447.965 C 315.590 448.728,316.272 452.179,316.850 456.400 C 318.886 471.278,318.453 490.147,315.781 503.000 C 315.415 504.760,315.026 506.920,314.917 507.800 C 314.808 508.680,314.556 509.571,314.359 509.780 C 314.162 509.989,314.000 510.833,314.000 511.656 C 314.000 512.479,313.820 513.264,313.600 513.400 C 313.380 513.536,313.200 514.168,313.200 514.805 C 313.200 515.441,313.038 516.376,312.840 516.881 C 312.642 517.387,312.162 518.970,311.773 520.400 C 311.383 521.830,310.915 523.171,310.732 523.380 C 310.550 523.589,310.400 524.253,310.400 524.856 C 310.400 525.459,310.220 526.064,310.000 526.200 C 309.780 526.336,309.600 526.799,309.600 527.229 C 309.600 527.659,309.441 528.323,309.247 528.705 C 309.052 529.087,308.707 529.850,308.480 530.400 C 307.458 532.871,305.805 536.426,304.483 539.000 C 303.692 540.540,302.855 542.204,302.622 542.697 C 302.390 543.190,302.065 543.595,301.900 543.597 C 301.735 543.599,301.600 543.798,301.600 544.039 C 301.600 544.686,297.403 550.647,295.010 553.400 C 294.245 554.280,293.614 555.135,293.609 555.300 C 293.570 556.572,291.285 555.279,287.955 552.100 C 285.938 550.175,283.530 547.880,282.603 547.000 C 281.676 546.120,278.147 542.766,274.759 539.546 C 271.372 536.327,267.970 533.108,267.200 532.395 C 266.430 531.681,262.562 528.015,258.605 524.249 C 254.648 520.482,250.068 516.140,248.428 514.600 C 246.788 513.060,244.430 510.810,243.189 509.600 C 241.948 508.390,238.256 504.880,234.985 501.800 C 231.714 498.720,228.108 495.300,226.973 494.200 C 225.837 493.100,222.428 489.860,219.397 487.000 C 212.605 480.592,212.511 480.503,203.991 472.400 C 200.174 468.770,195.612 464.450,193.853 462.800 C 192.094 461.150,189.642 458.810,188.405 457.600 C 187.167 456.390,183.661 453.060,180.613 450.200 C 177.565 447.340,173.683 443.650,171.987 442.000 C 170.290 440.350,166.715 436.955,164.041 434.456 C 161.367 431.956,157.249 428.052,154.890 425.779 L 150.600 421.647 154.682 417.523 C 156.927 415.256,166.964 405.150,176.985 395.068 C 187.007 384.985,195.105 376.570,194.980 376.368 C 194.855 376.165,193.989 376.000,193.056 376.000 C 192.123 376.000,191.189 375.836,190.980 375.635 C 190.771 375.435,189.610 375.175,188.400 375.059 C 187.190 374.943,185.210 374.666,184.000 374.443 C 182.790 374.220,180.630 373.848,179.200 373.617 C 177.770 373.385,176.330 373.090,176.000 372.960 C 175.427 372.735,173.654 372.399,168.800 371.593 C 166.498 371.210,163.833 370.756,159.800 370.059 C 158.480 369.831,155.960 369.341,154.200 368.971 C 150.978 368.292,149.012 367.941,144.600 367.256 C 143.280 367.051,141.922 366.769,141.583 366.631 C 140.830 366.322,65.487 441.763,65.678 442.635 C 65.774 443.071,86.299 463.904,95.717 473.123 L 97.477 474.846 115.031 457.223 C 124.686 447.530,132.871 439.600,133.219 439.600 C 133.568 439.600,135.461 441.265,137.428 443.300 C 150.100 456.415,159.785 466.491,160.396 467.196 C 160.788 467.647,165.044 472.087,169.854 477.063 C 182.759 490.411,182.815 490.469,190.400 498.412 C 194.250 502.444,198.660 507.031,200.200 508.605 C 201.740 510.179,204.698 513.252,206.773 515.434 C 208.848 517.615,214.707 523.720,219.792 529.000 C 224.877 534.280,230.199 539.835,231.619 541.344 C 233.038 542.854,235.910 545.833,238.000 547.965 C 240.090 550.096,245.310 555.511,249.600 559.997 C 253.890 564.483,258.953 569.760,260.850 571.723 C 264.749 575.757,264.863 576.276,262.077 577.270 C 261.045 577.638,259.390 578.245,258.400 578.619 C 257.410 578.993,256.015 579.456,255.300 579.649 C 254.585 579.842,253.325 580.192,252.500 580.427 C 234.500 585.546,210.924 585.828,189.000 581.187 C 187.900 580.954,186.190 580.600,185.200 580.400 C 182.631 579.882,180.050 579.307,178.200 578.841 C 177.320 578.619,175.670 578.204,174.533 577.919 C 173.396 577.633,172.331 577.265,172.166 577.100 C 172.002 576.935,171.367 576.800,170.757 576.800 C 170.147 576.800,169.536 576.620,169.400 576.400 C 169.264 576.180,168.711 576.000,168.171 576.000 C 167.631 576.000,166.877 575.839,166.495 575.643 C 166.113 575.446,164.180 574.786,162.200 574.176 C 160.220 573.566,158.429 572.917,158.220 572.733 C 158.011 572.550,157.437 572.400,156.944 572.400 C 156.451 572.400,155.936 572.220,155.800 572.000 C 155.664 571.780,155.201 571.600,154.771 571.600 C 154.341 571.600,153.677 571.438,153.295 571.240 C 152.913 571.042,151.340 570.394,149.800 569.801 C 146.213 568.419,145.162 567.989,144.305 567.553 C 143.923 567.359,143.417 567.200,143.181 567.200 C 142.944 567.200,141.727 566.735,140.475 566.168 C 139.224 565.600,137.795 564.970,137.300 564.768 C 136.805 564.565,135.995 564.234,135.500 564.031 C 131.483 562.383,110.847 552.227,104.028 548.541 L 99.857 546.287 98.828 547.472 C 98.263 548.125,97.387 549.185,96.881 549.829 C 86.208 563.429,86.263 563.372,84.565 562.586 C 80.017 560.481,78.288 560.329,75.069 561.752 C 69.361 564.277,67.716 568.319,69.598 575.200 C 70.470 578.389,70.549 581.878,69.785 583.489 C 69.110 584.912,65.765 588.400,65.076 588.400 C 64.882 588.400,64.157 588.805,63.465 589.300 C 62.084 590.288,57.988 592.800,57.759 592.800 C 57.680 592.800,56.631 593.430,55.427 594.200 C 54.223 594.970,53.050 595.600,52.819 595.600 C 52.589 595.600,52.400 595.780,52.400 596.000 C 52.400 596.220,52.218 596.400,51.996 596.400 C 51.454 596.400,45.020 600.550,42.933 602.246 C 42.016 602.990,41.086 603.600,40.866 603.600 C 40.646 603.600,40.407 603.735,40.333 603.900 C 40.260 604.065,39.120 605.094,37.800 606.187 C 34.364 609.032,29.640 613.899,27.444 616.857 C 26.405 618.256,25.295 619.717,24.978 620.105 C 24.660 620.492,24.400 620.965,24.400 621.156 C 24.400 621.346,24.157 621.704,23.860 621.950 C 22.864 622.777,19.414 630.403,18.681 633.400 C 18.086 635.835,17.868 642.828,18.372 643.332 C 18.608 643.568,18.805 644.129,18.812 644.580 C 18.887 649.577,27.902 653.611,34.372 651.543 C 38.496 650.225,42.005 648.628,44.754 646.818 C 45.939 646.038,47.184 645.220,47.522 645.000 C 49.133 643.951,50.080 643.105,54.008 639.200 C 56.331 636.890,58.759 634.280,59.402 633.400 C 60.045 632.520,60.766 631.599,61.004 631.353 C 61.242 631.107,62.235 629.667,63.210 628.153 C 64.185 626.639,65.076 625.310,65.191 625.200 C 65.400 625.000,65.587 624.681,67.517 621.232 C 69.300 618.046,72.368 611.501,74.000 607.400 C 76.646 600.752,78.355 597.746,81.013 595.061 L 83.648 592.400 89.630 592.400 C 95.976 592.400,96.525 592.271,98.479 590.326 C 101.569 587.249,102.191 581.769,100.000 576.936 C 98.464 573.549,98.427 573.774,100.966 571.090 C 103.696 568.203,103.387 568.169,107.447 571.800 C 108.758 572.973,118.498 580.718,121.008 582.583 C 121.884 583.234,122.660 583.909,122.733 584.083 C 122.807 584.258,123.107 584.400,123.400 584.400 C 123.693 584.400,123.993 584.550,124.067 584.733 C 124.398 585.560,145.492 599.600,146.404 599.600 C 146.622 599.600,146.800 599.736,146.800 599.902 C 146.800 600.069,147.385 600.460,148.100 600.771 C 148.815 601.083,150.120 601.789,151.000 602.341 C 155.383 605.089,168.273 611.450,176.800 615.073 C 177.570 615.400,178.513 615.832,178.895 616.034 C 179.277 616.235,179.864 616.400,180.200 616.400 C 180.536 616.400,181.123 616.562,181.505 616.760 C 182.552 617.303,187.186 619.074,189.000 619.625 C 189.880 619.892,190.960 620.247,191.400 620.413 C 193.301 621.131,199.103 622.800,199.700 622.800 C 200.059 622.800,200.464 622.980,200.600 623.200 C 200.736 623.420,201.456 623.600,202.200 623.600 C 202.944 623.600,203.652 623.761,203.774 623.958 C 203.895 624.155,204.671 624.412,205.497 624.530 C 206.324 624.647,207.900 624.935,209.000 625.168 C 215.085 626.459,217.250 626.880,219.600 627.233 C 234.548 629.478,258.331 629.010,270.200 626.237 C 271.740 625.878,273.810 625.393,274.800 625.161 C 275.790 624.929,277.187 624.643,277.904 624.526 C 278.621 624.408,279.306 624.151,279.427 623.956 C 279.548 623.760,280.089 623.600,280.629 623.600 C 281.169 623.600,281.923 623.436,282.305 623.235 C 282.687 623.035,283.900 622.571,285.000 622.204 C 286.100 621.838,287.360 621.390,287.800 621.209 C 288.240 621.029,289.230 620.661,290.000 620.393 C 291.713 619.796,293.560 618.983,298.060 616.844 C 299.963 615.940,301.751 615.200,302.034 615.200 C 302.521 615.200,306.733 619.377,315.178 628.237 C 338.433 652.633,339.498 653.576,342.552 652.472 C 343.270 652.212,344.155 652.000,344.518 652.000 C 347.169 652.000,356.144 645.358,359.600 640.839 C 360.150 640.119,360.825 639.289,361.100 638.994 C 361.375 638.699,361.600 638.279,361.600 638.062 C 361.600 637.845,361.742 637.607,361.915 637.533 C 362.088 637.460,362.729 636.320,363.340 635.000 C 363.951 633.680,364.620 632.287,364.826 631.905 C 365.031 631.523,365.200 629.930,365.200 628.365 L 365.200 625.519 361.674 622.060 C 359.735 620.157,355.652 616.260,352.602 613.400 C 349.551 610.540,345.763 606.940,344.184 605.400 C 342.604 603.860,339.030 600.464,336.240 597.854 L 331.169 593.108 331.851 592.054 C 332.227 591.474,332.823 590.730,333.176 590.400 C 334.083 589.552,337.906 584.856,340.183 581.792 C 340.834 580.916,341.509 580.140,341.683 580.067 C 341.858 579.993,342.000 579.745,342.000 579.514 C 342.000 579.284,342.645 578.198,343.434 577.100 C 344.222 576.002,345.190 574.541,345.585 573.852 C 348.611 568.570,349.200 567.480,349.200 567.162 C 349.200 566.963,349.380 566.800,349.600 566.800 C 349.820 566.800,350.000 566.567,350.000 566.282 C 350.000 565.997,350.810 564.189,351.800 562.265 C 352.790 560.341,353.600 558.505,353.600 558.184 C 353.600 557.863,353.780 557.600,354.000 557.600 C 354.220 557.600,354.400 557.274,354.400 556.875 C 354.400 556.476,354.748 555.429,355.174 554.548 C 355.600 553.667,356.070 552.462,356.218 551.869 C 356.367 551.277,356.649 550.694,356.844 550.573 C 357.040 550.452,357.200 549.924,357.200 549.400 C 357.200 548.876,357.380 548.336,357.600 548.200 C 357.820 548.064,358.000 547.524,358.000 547.000 C 358.000 546.476,358.180 545.936,358.400 545.800 C 358.620 545.664,358.800 545.034,358.800 544.400 C 358.800 543.766,358.956 543.151,359.146 543.033 C 359.336 542.916,359.604 542.230,359.741 541.510 C 359.878 540.789,360.281 539.210,360.637 538.000 C 361.501 535.060,362.313 531.155,363.214 525.600 C 366.831 503.311,366.582 484.281,362.370 461.200 C 362.149 459.990,361.867 458.280,361.743 457.400 C 361.619 456.520,361.356 455.629,361.159 455.420 C 360.962 455.211,360.800 454.682,360.800 454.244 C 360.800 453.806,360.337 451.907,359.770 450.024 C 359.204 448.141,358.556 445.880,358.331 445.000 C 358.106 444.120,357.760 443.087,357.561 442.705 C 357.362 442.323,357.200 441.736,357.200 441.400 C 357.200 441.064,357.036 440.477,356.835 440.095 C 356.635 439.713,356.171 438.500,355.804 437.400 C 355.438 436.300,354.972 434.995,354.769 434.500 C 354.566 434.005,354.244 433.195,354.054 432.700 C 353.863 432.205,353.479 431.260,353.200 430.600 C 352.921 429.940,352.552 429.040,352.379 428.600 C 351.419 426.148,346.394 415.594,346.000 415.200 C 345.791 414.991,343.774 411.258,343.029 409.703 C 342.793 409.210,342.465 408.805,342.300 408.803 C 342.135 408.801,342.000 408.617,342.000 408.394 C 342.000 408.007,334.925 396.818,334.416 396.400 C 334.282 396.290,333.290 394.940,332.211 393.400 C 331.131 391.860,330.146 390.510,330.022 390.400 C 329.897 390.290,329.263 389.480,328.612 388.600 C 327.961 387.720,327.242 386.807,327.014 386.571 C 326.787 386.335,325.880 385.268,325.000 384.201 C 320.829 379.141,307.088 365.130,303.031 361.800 C 301.959 360.920,300.883 360.019,300.641 359.797 C 300.398 359.575,299.030 358.438,297.600 357.271 C 296.170 356.103,294.663 354.873,294.251 354.536 C 288.779 350.063,273.109 339.175,268.400 336.573 C 267.630 336.148,266.940 335.665,266.867 335.500 C 266.793 335.335,266.574 335.200,266.378 335.200 C 266.183 335.200,264.653 334.390,262.978 333.400 C 261.304 332.410,259.769 331.600,259.567 331.600 C 259.365 331.600,259.200 331.465,259.199 331.300 C 259.199 331.135,258.029 330.466,256.599 329.814 C 255.170 329.161,254.000 328.486,254.000 328.314 C 254.000 328.141,253.655 328.000,253.233 328.000 C 252.812 328.000,252.407 327.865,252.333 327.699 C 252.260 327.534,250.130 326.384,247.600 325.143 C 242.836 322.808,240.388 321.667,231.089 317.448 C 229.818 316.872,228.524 316.400,228.213 316.400 C 227.902 316.400,227.536 316.220,227.400 316.000 C 227.264 315.780,226.803 315.600,226.376 315.600 C 225.949 315.600,225.600 315.420,225.600 315.200 C 225.600 314.980,225.238 314.800,224.795 314.800 C 224.352 314.800,223.677 314.635,223.295 314.434 C 222.913 314.232,221.880 313.773,221.000 313.414 C 220.120 313.055,219.087 312.590,218.705 312.381 C 218.323 312.171,217.736 312.000,217.400 312.000 C 217.064 312.000,216.477 311.841,216.095 311.647 C 214.975 311.077,213.536 310.530,211.400 309.861 C 208.430 308.931,206.449 308.183,206.141 307.874 C 205.990 307.723,205.367 307.600,204.757 307.600 C 204.147 307.600,203.536 307.420,203.400 307.200 C 203.264 306.980,202.743 306.800,202.243 306.800 C 201.743 306.800,201.208 306.674,201.054 306.521 C 200.626 306.093,195.600 304.857,195.600 305.180 " stroke="#ebeb1a" fill="#ff0000" fill-rule="evenodd" stroke-opacity="1"/></g></g></svg>